<?xml version="1.0" encoding="iso-8859-1"?>
<!-- Uploaded to: SVG Repo, www.svgrepo.com, Generator: SVG Repo Mixer Tools -->
<svg height="800px" width="800px" version="1.1" id="Layer_1" xmlns="http://www.w3.org/2000/svg" xmlns:xlink="http://www.w3.org/1999/xlink" 
	 viewBox="0 0 512 512" xml:space="preserve">
<path style="fill:#F7B970;" d="M512,256c0,103.219-83.978,187.197-187.197,187.197h-0.012
	C221.56,443.185,137.605,359.219,137.605,256S221.56,68.815,324.791,68.803h0.012c37.353,0,72.184,11.002,101.43,29.93
	c10.377,6.702,20.046,14.413,28.874,22.988C490.177,155.76,512,203.382,512,256z"/>
<path style="fill:#f8a84d;" d="M512,256c0,103.219-83.978,187.197-187.197,187.197h-0.012V68.803h0.012
	c37.353,0,72.184,11.002,101.43,29.93c10.377,6.702,20.046,14.413,28.874,22.988C490.177,155.76,512,203.382,512,256z"/>
<path style="fill:#CCE6FF;" d="M455.106,121.721c-9.548-7.939-19.241-15.662-28.874-22.988
	c-29.246-18.929-64.077-29.93-101.43-29.93h-0.012C221.56,68.815,137.605,152.781,137.605,256s83.954,187.185,187.185,187.197h0.012
	C428.022,443.197,512,359.219,512,256C512,203.382,490.177,155.76,455.106,121.721z M324.803,327.956h-0.012
	c-39.671-0.012-71.944-32.284-71.944-71.956s32.272-71.944,71.944-71.956h0.012c39.671,0,71.944,32.285,71.944,71.956
	S364.474,327.956,324.803,327.956z"/>
<path style="fill:#BDDEFF;" d="M512,256c0,103.219-83.978,187.197-187.197,187.197h-0.012V327.956h0.012
	c39.671,0,71.944-32.284,71.944-71.956s-32.272-71.956-71.944-71.956h-0.012V68.803h0.012c37.353,0,72.184,11.002,101.43,29.93
	c9.633,7.326,19.325,15.049,28.874,22.988C490.177,155.76,512,203.382,512,256z"/>
<path style="fill:#CCE6FF;" d="M128.513,86.819v99.76c0,17.884-14.557,32.429-32.429,32.429H80.759v206.174
	c0,9.44-7.266,17.187-16.503,17.944c-0.492,0.048-0.997,0.072-1.513,0.072c-9.957,0-18.016-8.059-18.016-18.016V219.007H32.429
	C14.545,219.007,0,204.463,0,186.579v-99.76c0-9.957,8.071-18.016,18.016-18.016s18.016,8.059,18.016,18.016v96.157h9.897V86.819
	c0-9.957,8.059-18.016,18.016-18.016c0.108,0,0.204,0,0.312,0.012c9.801,0.156,17.704,8.155,17.704,18.004v96.157h10.521V86.819
	c0-9.957,8.059-18.016,18.016-18.016C120.442,68.803,128.513,76.862,128.513,86.819z"/>
<path style="fill:#BDDEFF;" d="M128.513,86.819v99.76c0,17.884-14.557,32.429-32.429,32.429H80.759v206.174
	c0,9.44-7.266,17.187-16.503,17.944V68.815c9.801,0.156,17.704,8.155,17.704,18.004v96.157h10.521V86.819
	c0-9.957,8.059-18.016,18.016-18.016C120.442,68.803,128.513,76.862,128.513,86.819z"/>
</svg>