<?xml version="1.0" encoding="iso-8859-1"?>
<!-- Uploaded to: SVG Repo, www.svgrepo.com, Generator: SVG Repo Mixer Tools -->
<svg version="1.1" id="Layer_1" xmlns="http://www.w3.org/2000/svg" xmlns:xlink="http://www.w3.org/1999/xlink" 
	 viewBox="0 0 512 512" xml:space="preserve">
<circle style="fill:#EDEDEE;" cx="256" cy="256" r="256"/>
<g>
	<path style="fill:#DDDCDF;" d="M512,256c0,141.384-114.616,256-256,256V0C397.384,0,512,114.616,512,256z"/>
	<circle style="fill:#DDDCDF;" cx="256" cy="256" r="144.607"/>
</g>
<path style="fill:#CCCCCF;" d="M400.61,256c0,79.866-64.745,144.61-144.61,144.61V111.39C335.866,111.39,400.61,176.134,400.61,256z
	"/>
<g>
	
		<rect x="444.229" y="20.132" transform="matrix(-0.7071 -0.7071 0.7071 -0.7071 750.736 413.1033)" style="fill:#AB7315;" width="33.391" height="61.873"/>
	
		<rect x="61.526" y="364.454" transform="matrix(-0.7071 -0.7071 0.7071 -0.7071 -173.1926 795.8094)" style="fill:#AB7315;" width="33.391" height="138.639"/>
</g>
<path style="fill:#E3744E;" d="M252.9,259.1c-22.569-22.569-22.569-59.294,0-81.863s59.294-22.569,81.863,0s22.569,59.294,0,81.863
	S275.469,281.669,252.9,259.1z"/>
<path style="fill:#F5DC49;" d="M267.686,326.177l-81.863-81.863l26.146-26.146l81.863,81.863L267.686,326.177z"/>
<path style="fill:#ECAE44;" d="M267.686,326.177l-40.932-40.932l26.146-26.147l40.932,40.932L267.686,326.177z"/>
<path style="fill:#F5DC49;" d="M364.358,147.642c-22.569-22.569-22.569-59.294,0-81.863c22.569-22.569,59.294-22.569,81.863,0
	s22.569,59.294,0,81.863C423.652,170.211,386.927,170.211,364.358,147.642z"/>
<path style="fill:#ECAE44;" d="M364.358,147.642c21.593-21.593,69.34-69.34,81.863-81.863c22.569,22.569,22.569,59.294,0,81.863
	C423.652,170.211,386.927,170.211,364.358,147.642z"/>
<path style="fill:#E05323;" d="M252.9,259.1c21.593-21.593,69.34-69.34,81.863-81.863c22.569,22.569,22.569,59.294,0,81.863
	S275.469,281.669,252.9,259.1z"/>
<path style="fill:#A8DD5E;" d="M375.696,218.168l-81.863-81.863l29.595-29.595l81.863,81.863L375.696,218.168z"/>
<path style="fill:#86C37E;" d="M375.696,218.168l-40.932-40.932l29.595-29.595l40.932,40.932L375.696,218.168z"/>
<path style="fill:#E3744E;" d="M156.228,437.635l-81.863-81.863l29.595-29.595l81.863,81.863L156.228,437.635z"/>
<path style="fill:#E05323;" d="M156.228,437.635l-40.932-40.932l29.595-29.595l40.932,40.932L156.228,437.635z"/>
<path style="fill:#A8DD5E;" d="M144.89,367.11c-22.569-22.569-22.569-59.294,0-81.863c22.569-22.569,59.294-22.569,81.863,0
	c22.569,22.569,22.569,59.294,0,81.863C204.184,389.679,167.461,389.679,144.89,367.11z"/>
<path style="fill:#86C37E;" d="M144.89,367.11c21.593-21.593,69.34-69.34,81.863-81.863c22.569,22.569,22.569,59.294,0,81.863
	C204.184,389.679,167.461,389.679,144.89,367.11z"/>
</svg>